<svg width="537" height="535" viewBox="0 0 537 535" fill="none" xmlns="http://www.w3.org/2000/svg">
<path d="M259.057 514.861C265.494 515.631 271.562 519.204 270.083 527.397L199.243 527.736V504.051C199.243 504.328 199.243 504.574 199.243 504.79C199.243 505.005 221.512 505.252 223.452 504.79H224.315C228.473 505.159 245.69 513.291 259.057 514.861Z" fill="black"/>
<path d="M142.971 526.35V527.058L105.827 526.72L75.6734 512.49L85.3754 492.686L106.597 501.094C118.177 506.792 118.67 514.554 124.43 514.276C134.255 513.814 142.232 521.083 142.971 526.35Z" fill="black"/>
<path d="M219.233 200.27C224.345 233.318 230.136 273.82 230.413 289.59L109.954 289.805C110.57 278.101 121.689 172.765 121.689 172.765C121.689 172.765 89.2565 223.185 72.4089 210.003C61.3825 201.379 47.4917 112.521 47.4917 112.521L60.1505 108.732C64.6165 126.627 82.9733 172.765 83.9281 172.765C84.8829 172.765 105.488 144.06 115.252 131.37C121.073 123.855 147.099 124.995 147.099 124.995C148.115 122.469 148.639 120.19 151.103 118.835C153.567 117.479 172.293 115.385 182.581 118.219C184.069 118.744 185.384 119.669 186.384 120.891C187.383 122.113 188.028 123.585 188.248 125.149C188.248 125.149 203.401 124.533 212.487 129.522C222.805 135.128 286.407 262.547 286.407 262.547L275.751 272.434L219.233 200.27Z" fill="black"/>
<path d="M63.5076 45.5626C63.0305 40.4688 61.26 35.5813 58.364 31.3638C51.5572 23.0786 43.9188 25.6658 37.2044 32.103C24.8844 26.405 12.5644 21.8774 10.4084 25.6042C8.7144 28.6842 19.3096 33.8586 31.5372 38.7558C46.044 44.577 62.8608 49.8438 64.062 50.0902C63.9183 48.6118 63.7335 47.1026 63.5076 45.5626ZM76.3204 9.12617V61.2398C76.2014 63.245 75.291 65.1208 73.7893 66.455C72.2876 67.7892 70.3177 68.4724 68.3124 68.3546H60.982C60.4584 64.2274 59.5036 61.055 57.902 60.9934C55.5612 60.9934 54.822 63.7654 54.4832 68.3238H9.9772C7.97709 68.4332 6.01505 67.7461 4.52015 66.4128C3.02525 65.0795 2.11915 63.2085 2 61.209V9.12617C2.12703 7.12957 3.03545 5.26337 4.52852 3.93171C6.02159 2.60006 7.97912 1.91014 9.9772 2.01137H68.3124C70.3156 1.90176 72.2811 2.5879 73.7809 3.92042C75.2807 5.25293 76.1934 7.12395 76.3204 9.12617V9.12617Z" fill="black"/>
<path d="M380.963 112.367C380.963 123.517 380.779 130.478 380.963 131.248L323.552 130.97C322.351 124.318 327.279 121.422 332.484 120.806C343.326 119.543 356.293 112.675 358.295 112.244L380.963 112.367Z" fill="black"/>
<path d="M380.933 130.847H323.552V135.56H380.933V130.847Z" stroke="black" stroke-width="2.6488" stroke-linecap="round" stroke-linejoin="round"/>
<path d="M309.292 284.447C309.764 283.605 310.047 282.67 310.121 281.707C310.196 280.744 310.06 279.777 309.723 278.872C309.076 277.086 305.565 271.018 293.214 270.341" stroke="black" stroke-width="2.6488" stroke-linecap="round" stroke-linejoin="round"/>
<path d="M311.448 279.302C311.879 278.495 312.137 277.608 312.206 276.696C312.274 275.784 312.153 274.867 311.848 274.005C311.202 272.311 306.612 265.935 296.448 265.627" stroke="black" stroke-width="2.6488" stroke-linecap="round" stroke-linejoin="round"/>
<path d="M266.572 15.902C268.359 21.5076 270.391 27.3288 272.147 32.7188C263.906 36.3841 255.249 39.0319 246.367 40.6036C241.07 41.2196 236.049 44.1764 237.127 50.9524L237.928 56.0344H295.801C295.801 56.0344 295.801 39.8952 296.14 15.7788L266.572 15.902Z" stroke="black" stroke-width="2.6488" stroke-linecap="round" stroke-linejoin="round"/>
<path d="M237.713 53.5691C240.177 43.8979 250.895 51.8135 266.973 49.8731C276.213 48.7335 285.453 42.7275 295.463 43.3743" stroke="black" stroke-width="2.6488" stroke-miterlimit="10"/>
<path d="M134.255 306.839C131.175 323.409 114.759 328.399 99.6975 325.811" stroke="black" stroke-width="2.6488" stroke-miterlimit="10" stroke-linecap="round"/>
<path d="M270.33 527.797H199.305V533.618H270.33V527.797Z" stroke="black" stroke-width="2.6488" stroke-linecap="round" stroke-linejoin="round"/>
<path d="M107.152 501.31C113.312 496.197 151.842 430.47 174.912 367.392C181.421 350.265 186.5 332.628 190.096 314.662" stroke="black" stroke-width="2.6488" stroke-miterlimit="10" stroke-linecap="round"/>
<path d="M113.373 290.052C109.677 360.245 85.8683 492.685 85.8683 492.685" stroke="black" stroke-width="2.6488" stroke-miterlimit="10" stroke-linecap="round"/>
<path d="M175.003 367.237C180.671 398.037 196.995 490.437 199.212 503.897C199.212 504.174 199.212 504.421 199.212 504.636C199.212 504.852 221.481 505.098 223.421 504.636C227.487 495.797 230.228 402.072 227.764 290.545" stroke="black" stroke-width="2.6488" stroke-miterlimit="10" stroke-linecap="round"/>
<path d="M224.407 504.821C228.565 505.159 245.69 513.291 259.057 514.861C265.494 515.631 271.562 519.204 270.083 527.397L199.243 527.736" stroke="black" stroke-width="2.6488" stroke-linecap="round" stroke-linejoin="round"/>
<path d="M199.213 504.02V504.051V527.182" stroke="black" stroke-width="2.6488" stroke-miterlimit="10"/>
<path d="M75.6739 512.49L72.4091 518.774L104.472 533.188L143.003 532.88V527.059H142.972L105.827 526.72L75.6739 512.49Z" stroke="black" stroke-width="2.6488" stroke-linecap="round" stroke-linejoin="round"/>
<path d="M142.971 526.35C142.171 521.083 134.255 513.814 124.491 514.246C118.732 514.523 118.331 506.761 106.658 501.063L85.3754 492.686L75.6734 512.521" stroke="black" stroke-width="2.6488" stroke-linecap="round" stroke-linejoin="round"/>
<path d="M184.336 52.061C183.658 45.0694 182.827 34.7206 178.176 29.115C163.361 11.1278 143.896 45.747 140.508 56.989C137.428 67.4918 151.411 92.0394 155.6 93.949C161.975 96.8134 171.431 91.0846 174.634 85.171" stroke="black" stroke-width="2.6488" stroke-miterlimit="10" stroke-linecap="round"/>
<path d="M183.782 118.342C184.49 100.17 186.184 83.7533 185.414 65.5505" stroke="black" stroke-width="2.6488" stroke-miterlimit="10"/>
<path d="M157.386 93.7021C156.154 102.049 154.737 111.874 151.411 118.804" stroke="black" stroke-width="2.6488" stroke-miterlimit="10"/>
<path d="M181.688 55.3248C190.928 43.0048 196.441 59.914 192.96 64.1028C191.713 65.2275 190.123 65.8997 188.447 66.0114C186.771 66.1232 185.106 65.6679 183.72 64.7188" stroke="black" stroke-width="2.6488" stroke-miterlimit="10" stroke-linecap="round"/>
<path d="M151.935 35.9526C150.888 35.9526 126.494 29.9774 130.375 23.3554C134.625 15.8402 181.01 42.1434 183.905 43.5602" stroke="black" stroke-width="2.6488" stroke-miterlimit="10"/>
<path d="M164.285 52.9238C166.533 54.3508 169.048 55.3044 171.677 55.7266" stroke="black" stroke-width="2.6488" stroke-miterlimit="10" stroke-linecap="round"/>
<path d="M185.568 57.7888C186.837 59.0344 188.507 59.7878 190.281 59.914" stroke="black" stroke-width="2.6488" stroke-miterlimit="10" stroke-linecap="round"/>
<path d="M165.794 61.0227C166.509 61.0227 167.088 60.4436 167.088 59.7292C167.088 59.0147 166.509 58.4355 165.794 58.4355C165.08 58.4355 164.501 59.0147 164.501 59.7292C164.501 60.4436 165.08 61.0227 165.794 61.0227Z" fill="black"/>
<path d="M149.194 58.0044C149.908 58.0044 150.487 57.4253 150.487 56.7108C150.487 55.9964 149.908 55.4172 149.194 55.4172C148.479 55.4172 147.9 55.9964 147.9 56.7108C147.9 57.4253 148.479 58.0044 149.194 58.0044Z" fill="black"/>
<path d="M147.592 50.9204C148.201 50.4993 148.894 50.2146 149.623 50.0859C150.352 49.9572 151.101 49.9874 151.817 50.1746C152.533 50.3617 153.201 50.7014 153.774 51.1703C154.347 51.6392 154.812 52.2264 155.138 52.8916C155.938 56.2488 152.982 62.5628 151.565 66.228C150.61 68.7228 148.916 73.62 153.721 72.9732" stroke="black" stroke-width="2.6488" stroke-miterlimit="10" stroke-linecap="round"/>
<path d="M162.468 84.123C161.897 84.6855 161.208 85.1136 160.451 85.3761C159.694 85.6386 158.887 85.7288 158.091 85.6403C157.294 85.5518 156.527 85.2867 155.846 84.8644C155.165 84.4421 154.586 83.8731 154.152 83.199" stroke="black" stroke-width="2.6488" stroke-miterlimit="10" stroke-linecap="round"/>
<path d="M64.0623 50.089C63.9186 48.6106 63.7338 47.1014 63.5079 45.5614C63.0309 40.4676 61.2603 35.5801 58.3643 31.3626C51.5575 23.0774 43.9191 25.6646 37.2047 32.1018C35.1454 34.1268 33.2599 36.3213 31.5683 38.6622" stroke="black" stroke-width="2.6488" stroke-miterlimit="10" stroke-linecap="round"/>
<path d="M64.124 50.0901C62.9228 49.8437 46.106 44.5769 31.5992 38.7557C19.2792 33.8585 8.77638 28.5917 10.4704 25.6041C12.5648 21.8773 24.9464 26.4049 37.2664 32.1029C49.0628 37.5853 60.8592 44.1457 63.5696 45.5625L64.0008 45.7781" stroke="black" stroke-width="2.6488" stroke-miterlimit="10"/>
<path d="M54.2676 68.3546H9.9772C7.97709 68.464 6.01505 67.7769 4.52015 66.4436C3.02525 65.1103 2.11915 63.2393 2 61.2398V9.12617C2.12703 7.12957 3.03545 5.26337 4.52852 3.93171C6.02159 2.60006 7.97912 1.91014 9.9772 2.01137H68.3124C70.3156 1.90176 72.2811 2.5879 73.7809 3.92042C75.2807 5.25293 76.1934 7.12395 76.3204 9.12617V61.2398C76.2014 63.245 75.291 65.1208 73.7893 66.455C72.2876 67.7892 70.3177 68.4724 68.3124 68.3546H61.3824" stroke="black" stroke-width="2.6488" stroke-linecap="round" stroke-linejoin="round"/>
<path d="M61.1361 87.8505C61.7337 81.373 61.6821 74.8521 60.9821 68.3849C60.4585 64.2577 59.5037 61.0853 57.9021 61.0237C55.5613 61.0237 54.8221 63.7957 54.4833 68.3541C54.1445 72.9125 54.3293 80.1197 53.6825 87.2345" stroke="black" stroke-width="2.6488" stroke-miterlimit="10" stroke-linecap="round"/>
<path d="M280.493 68.7547H239.221C237.221 68.8641 235.259 68.177 233.764 66.8437C232.269 65.5104 231.363 63.6394 231.244 61.6399V9.55709C231.371 7.56303 232.281 5.69984 233.775 4.3731C235.269 3.04635 237.226 2.36347 239.221 2.47309H297.741C299.733 2.36368 301.688 3.0475 303.177 4.37502C304.666 5.70253 305.569 7.56571 305.688 9.55709V61.6399C305.577 63.6368 304.677 65.5078 303.187 66.8418C301.697 68.1759 299.738 68.8639 297.741 68.7547H280.617H280.493Z" stroke="black" stroke-width="2.6488" stroke-linecap="round" stroke-linejoin="round"/>
<path d="M364.208 154.716H322.936C320.961 154.819 319.025 154.144 317.54 152.838C316.055 151.532 315.14 149.697 314.99 147.725V95.5188C315.117 93.5303 316.022 91.6719 317.509 90.3461C318.997 89.0202 320.946 88.3335 322.936 88.4348H381.456C383.451 88.3251 385.409 89.008 386.903 90.3348C388.397 91.6615 389.307 93.5247 389.434 95.5188V147.725C389.314 149.724 388.408 151.595 386.913 152.929C385.419 154.262 383.457 154.949 381.456 154.84H364.332L364.208 154.716Z" stroke="black" stroke-width="2.6488" stroke-linecap="round" stroke-linejoin="round"/>
<path d="M526.678 134.729C526.678 145.878 526.494 152.839 526.678 153.609L469.267 153.363C468.066 146.71 472.994 143.784 478.199 143.199C489.041 141.905 502.008 135.037 504.01 134.605L526.678 134.729Z" stroke="black" stroke-width="2.6488" stroke-miterlimit="10"/>
<path d="M526.647 159.829H513.619L511.802 156.133L509.553 159.829H469.267V153.207H526.647V159.829Z" stroke="black" stroke-width="2.6488" stroke-linecap="round" stroke-linejoin="round"/>
<path d="M509.953 177.077H468.712C466.717 177.187 464.76 176.504 463.266 175.177C461.771 173.85 460.862 171.987 460.735 169.993V117.91C460.846 115.905 461.749 114.026 463.245 112.687C464.741 111.347 466.707 110.656 468.712 110.765H527.078C529.078 110.655 531.04 111.342 532.535 112.676C534.03 114.009 534.936 115.88 535.055 117.88V169.993C534.928 171.987 534.019 173.85 532.525 175.177C531.031 176.504 529.073 177.187 527.078 177.077H509.984H509.953Z" stroke="black" stroke-width="2.6488" stroke-linecap="round" stroke-linejoin="round"/>
<path d="M460.181 68.416H418.909C416.912 68.5252 414.953 67.8372 413.463 66.5031C411.973 65.169 411.074 63.298 410.963 61.3012V9.12597C411.082 7.13204 411.984 5.26587 413.472 3.93345C414.96 2.60103 416.914 1.91017 418.909 2.01117H477.429C479.406 1.94301 481.332 2.64782 482.799 3.97609C484.265 5.30436 485.156 7.1516 485.283 9.12597V61.3012C485.164 63.3007 484.258 65.1717 482.763 66.505C481.268 67.8383 479.306 68.5254 477.306 68.416H460.181Z" stroke="black" stroke-width="2.6488" stroke-linecap="round" stroke-linejoin="round"/>
<path d="M455.715 460.962H298.296C290.904 460.962 284.898 452.245 284.898 441.496V317.68C284.898 306.9 291.058 298.184 298.296 298.184H467.05C494.338 298.184 495.755 310.504 493.26 323.07L468.62 446.886C466.926 455.233 461.66 460.962 455.715 460.962Z" stroke="black" stroke-width="2.6488" stroke-linejoin="round"/>
<path d="M438.067 507.501C440.633 507.494 443.143 508.25 445.279 509.671C447.416 511.092 449.082 513.115 450.069 515.484C451.055 517.853 451.316 520.461 450.819 522.978C450.322 525.495 449.09 527.809 447.277 529.625C445.465 531.442 443.155 532.68 440.639 533.183C438.122 533.686 435.514 533.431 433.143 532.45C430.771 531.469 428.744 529.808 427.318 527.674C425.892 525.541 425.131 523.033 425.131 520.467C425.127 518.766 425.458 517.08 426.107 515.507C426.755 513.934 427.707 512.505 428.909 511.3C430.11 510.096 431.538 509.14 433.109 508.488C434.681 507.836 436.365 507.501 438.067 507.501ZM444.412 520.467C444.448 519.205 444.108 517.961 443.433 516.893C442.759 515.826 441.781 514.984 440.626 514.475C439.47 513.967 438.189 513.814 436.946 514.038C435.703 514.262 434.556 514.851 433.65 515.73C432.744 516.61 432.121 517.74 431.861 518.975C431.601 520.211 431.715 521.496 432.189 522.666C432.664 523.836 433.476 524.838 434.523 525.544C435.57 526.25 436.804 526.627 438.067 526.627C439.728 526.628 441.324 525.976 442.51 524.813C443.697 523.649 444.379 522.067 444.412 520.406V520.467Z" fill="black"/>
<path d="M313.265 507.501C315.831 507.494 318.341 508.25 320.478 509.671C322.614 511.092 324.281 513.115 325.267 515.484C326.253 517.853 326.514 520.461 326.017 522.978C325.521 525.495 324.288 527.809 322.476 529.625C320.664 531.442 318.353 532.68 315.837 533.183C313.321 533.686 310.712 533.431 308.341 532.45C305.97 531.469 303.943 529.808 302.517 527.674C301.09 525.541 300.329 523.033 300.329 520.467C300.325 518.766 300.657 517.08 301.305 515.507C301.953 513.934 302.906 512.505 304.107 511.3C305.309 510.096 306.736 509.14 308.308 508.488C309.879 507.836 311.564 507.501 313.265 507.501V507.501ZM319.61 520.467C319.647 519.205 319.306 517.961 318.632 516.893C317.957 515.826 316.98 514.984 315.824 514.475C314.668 513.967 313.387 513.814 312.145 514.038C310.902 514.262 309.754 514.851 308.848 515.73C307.942 516.61 307.319 517.74 307.059 518.975C306.799 520.211 306.913 521.496 307.388 522.666C307.862 523.836 308.675 524.838 309.722 525.544C310.769 526.25 312.003 526.627 313.265 526.627C314.927 526.628 316.522 525.976 317.709 524.813C318.895 523.649 319.578 522.067 319.61 520.406V520.467Z" fill="black"/>
<path d="M438.067 533.402C445.211 533.402 451.003 527.611 451.003 520.467C451.003 513.322 445.211 507.531 438.067 507.531C430.922 507.531 425.131 513.322 425.131 520.467C425.131 527.611 430.922 533.402 438.067 533.402Z" stroke="black" stroke-width="2.6488" stroke-linejoin="round"/>
<path d="M326.232 520.406C326.232 522.97 325.471 525.477 324.047 527.61C322.622 529.742 320.597 531.404 318.227 532.385C315.858 533.367 313.251 533.624 310.735 533.123C308.22 532.623 305.91 531.388 304.096 529.574C302.283 527.761 301.048 525.451 300.548 522.935C300.047 520.42 300.304 517.813 301.285 515.443C302.267 513.074 303.929 511.049 306.061 509.624C308.194 508.199 310.701 507.439 313.265 507.439C314.969 507.435 316.657 507.767 318.232 508.418C319.807 509.068 321.238 510.023 322.443 511.228C323.648 512.433 324.603 513.864 325.253 515.439C325.903 517.014 326.236 518.702 326.232 520.406V520.406Z" stroke="black" stroke-width="2.6488" stroke-linejoin="round"/>
<path d="M319.61 520.405C319.61 521.66 319.238 522.887 318.54 523.93C317.843 524.974 316.852 525.787 315.693 526.267C314.534 526.747 313.258 526.873 312.027 526.628C310.796 526.383 309.666 525.779 308.778 524.892C307.891 524.005 307.287 522.874 307.042 521.643C306.797 520.412 306.923 519.137 307.403 517.977C307.883 516.818 308.696 515.827 309.74 515.13C310.783 514.433 312.01 514.061 313.265 514.061C314.099 514.057 314.926 514.218 315.698 514.535C316.469 514.853 317.17 515.32 317.76 515.91C318.35 516.5 318.818 517.201 319.135 517.973C319.452 518.744 319.614 519.571 319.61 520.405V520.405Z" stroke="black" stroke-width="2.6488" stroke-linejoin="round"/>
<path d="M444.411 520.405C444.411 521.66 444.039 522.887 443.342 523.93C442.645 524.974 441.654 525.787 440.495 526.267C439.335 526.747 438.059 526.873 436.829 526.628C435.598 526.383 434.467 525.779 433.58 524.892C432.693 524.005 432.088 522.874 431.844 521.643C431.599 520.412 431.724 519.137 432.205 517.977C432.685 516.818 433.498 515.827 434.542 515.13C435.585 514.433 436.812 514.061 438.066 514.061C438.901 514.057 439.728 514.218 440.499 514.535C441.271 514.853 441.972 515.32 442.562 515.91C443.152 516.5 443.619 517.201 443.937 517.973C444.254 518.744 444.415 519.571 444.411 520.405V520.405Z" stroke="black" stroke-width="2.6488" stroke-linejoin="round"/>
<path d="M275.843 272.034C271.439 276.408 275.843 289.652 284.621 291.407C285.978 291.645 287.375 291.48 288.64 290.932C289.904 290.385 290.98 289.479 291.736 288.327C293.368 284.385 289.149 281.52 284.59 284.108" stroke="black" stroke-width="2.6488" stroke-linejoin="round"/>
<path d="M59.9969 108.763C65.7257 106.946 70.9001 88.2193 56.9169 87.6341C54.1449 87.6341 48.5393 87.0797 47.6769 90.7141C47.4902 91.3309 47.5494 91.9961 47.8422 92.5703C48.1351 93.1444 48.6387 93.583 49.2477 93.7941C50.5889 94.1234 51.9632 94.2991 53.3441 94.3177C55.0381 94.3177 56.8245 95.3032 56.2393 95.5188C53.6213 96.4736 52.5433 100.077 52.3893 102.51" stroke="black" stroke-width="2.6488" stroke-miterlimit="10" stroke-linecap="round"/>
<path d="M53.9596 80.6739C53.4976 76.6391 47.1528 77.5939 46.506 80.6739C44.5964 89.9139 47.0296 101.895 52.358 100.478" stroke="black" stroke-width="2.6488" stroke-miterlimit="10" stroke-linecap="round"/>
<path d="M45.9517 84.1237C45.9966 83.2659 45.699 82.4255 45.1242 81.7873C44.5495 81.149 43.7448 80.7652 42.8871 80.7203C42.0294 80.6753 41.1889 80.973 40.5507 81.5477C39.9124 82.1224 39.5286 82.9272 39.4837 83.7849C37.6357 92.6245 41.2085 99.6469 43.6109 100.94C44.0291 101.123 44.4795 101.221 44.9359 101.229C45.3923 101.236 45.8456 101.153 46.2696 100.984C46.6936 100.815 47.0798 100.563 47.4059 100.244C47.732 99.9246 47.9915 99.5437 48.1693 99.1233" stroke="black" stroke-width="2.6488" stroke-miterlimit="10" stroke-linecap="round"/>
<path d="M47.2765 112.459C42.6257 110.211 40.4389 101.371 41.3013 98.7839" stroke="black" stroke-width="2.6488" stroke-miterlimit="10" stroke-linecap="round"/>
<path d="M303.502 283.03C302.239 283.03 301.007 282.845 299.929 283.8C299.562 284.112 299.273 284.506 299.086 284.95C298.898 285.394 298.818 285.876 298.851 286.357C299.159 287.435 301.931 287.989 302.947 287.958C303.984 287.937 305.006 287.708 305.953 287.284C306.9 286.861 307.753 286.252 308.46 285.494C311.206 281.814 312.725 277.364 312.803 272.774C312.898 270.814 312.384 268.874 311.33 267.219C310.277 265.564 308.736 264.277 306.92 263.534C300.478 260.743 293.282 260.211 286.5 262.025" stroke="black" stroke-width="2.6488" stroke-linejoin="round"/>
<path d="M219.078 199.994L219.294 200.271L275.689 272.22" stroke="black" stroke-width="2.6488" stroke-miterlimit="10" stroke-linecap="round"/>
<path d="M275.689 272.311L286.346 262.424C286.346 262.424 222.774 134.974 212.456 129.245C203.216 124.255 188.217 124.871 188.217 124.871C187.997 123.308 187.352 121.835 186.353 120.613C185.354 119.391 184.038 118.467 182.55 117.941C172.262 115.108 153.413 117.141 151.072 118.557C148.731 119.974 147.992 122.346 147.068 124.717C147.068 124.717 121.042 123.578 115.221 131.093C105.272 144.06 84.8521 172.765 83.8973 172.765C82.9425 172.765 64.5857 126.565 60.1197 108.732L47.4609 112.521C47.4609 112.521 61.3517 201.379 72.3781 210.003C89.3181 223.185 121.658 172.765 121.658 172.765C121.658 172.765 110.539 278.071 109.923 289.805L230.382 289.59C230.105 273.851 224.222 233.349 219.202 200.27C217.076 186.564 215.074 174.121 213.658 165.25" stroke="black" stroke-width="2.6488" stroke-linecap="round" stroke-linejoin="round"/>
<path d="M300.975 287.957C300.975 287.957 300.667 295.411 303.224 297.967" stroke="black" stroke-width="2.6488" stroke-linejoin="round"/>
<path d="M287.978 290.946C287.651 294.495 288.601 298.044 290.658 300.956" stroke="black" stroke-width="2.6488" stroke-linejoin="round"/>
<path d="M303.224 283.061C305.38 283.061 300.729 277.271 295.278 277.147C285.576 276.932 283.789 282.291 285.853 284.047" stroke="black" stroke-width="2.6488" stroke-linejoin="round"/>
<path d="M313.512 507.192V485.139C313.536 481.172 315.131 477.376 317.948 474.582C320.765 471.788 324.575 470.224 328.542 470.232H423.776C427.743 470.224 431.552 471.788 434.369 474.582C437.186 477.376 438.782 481.172 438.806 485.139V507.346" stroke="black" stroke-width="2.6488" stroke-linejoin="round"/>
<path d="M416.938 261.346V225.772H475.427V298.768" stroke="black" stroke-width="2.6488" stroke-linejoin="round"/>
<path d="M378.992 298.183C377.85 295.012 377.266 291.667 377.268 288.297C377.257 284.079 378.174 279.911 379.953 276.087C381.732 272.263 384.331 268.878 387.564 266.17C390.797 263.462 394.587 261.498 398.663 260.417C402.74 259.337 407.004 259.165 411.155 259.916C415.305 260.667 419.239 262.321 422.679 264.761C426.119 267.201 428.98 270.368 431.06 274.037C433.14 277.705 434.388 281.787 434.715 285.992C435.042 290.196 434.441 294.422 432.954 298.368" stroke="black" stroke-width="2.6488" stroke-linejoin="round"/>
<path d="M329.312 298.183V249.95H390.665V263.687" stroke="black" stroke-width="2.6488" stroke-linejoin="round"/>
<path d="M371.2 233.812H349.455V249.951H371.2V233.812Z" stroke="black" stroke-width="2.6488" stroke-linejoin="round"/>
<path d="M284.682 320.575H493.476" stroke="black" stroke-width="2.6488" stroke-linejoin="round"/>
<path d="M284.682 348.264H488.271" stroke="black" stroke-width="2.6488" stroke-linejoin="round"/>
<path d="M284.682 375.954H482.942" stroke="black" stroke-width="2.6488" stroke-linejoin="round"/>
<path d="M284.682 403.642H477.398" stroke="black" stroke-width="2.6488" stroke-linejoin="round"/>
<path d="M284.682 431.332H472.008" stroke="black" stroke-width="2.6488" stroke-linejoin="round"/>
<path d="M310.185 462.131V297.967" stroke="black" stroke-width="2.6488" stroke-linejoin="round"/>
<path d="M337.905 462.131V298.676" stroke="black" stroke-width="2.6488" stroke-linejoin="round"/>
<path d="M365.594 462.132V298.83" stroke="black" stroke-width="2.6488" stroke-linejoin="round"/>
<path d="M393.376 462.132V298.522" stroke="black" stroke-width="2.6488" stroke-linejoin="round"/>
<path d="M420.973 462.132V297.875" stroke="black" stroke-width="2.6488" stroke-linejoin="round"/>
<path d="M447.522 462.132V297.784" stroke="black" stroke-width="2.6488" stroke-linejoin="round"/>
<path d="M475.303 413.315V298.615" stroke="black" stroke-width="2.6488" stroke-linejoin="round"/>
<path d="M448.385 22.5237H431.137L426.917 40.3569L417.923 44.8845H448.385" stroke="black" stroke-width="2.6488" stroke-linecap="round" stroke-linejoin="round"/>
<path d="M447.522 22.5237H464.801L468.99 40.3569L477.984 44.8845H447.522" stroke="black" stroke-width="2.6488" stroke-linecap="round" stroke-linejoin="round"/>
</svg>
