<svg width="233" height="551" viewBox="0 0 233 551" fill="none" xmlns="http://www.w3.org/2000/svg">
<path d="M154.583 275.885C152.704 278.349 139.984 287.219 135.117 288.205C127.941 289.406 119.101 282.291 113.834 277.979C108.644 274.804 104.31 270.406 101.209 265.171C98.1083 259.936 96.3355 254.021 96.0452 247.944C95.7549 241.866 96.9559 235.809 99.5434 230.302C102.131 224.795 106.027 220.005 110.89 216.349C115.754 212.693 121.439 210.282 127.448 209.327C133.457 208.372 139.609 208.902 145.366 210.87C151.124 212.839 156.313 216.185 160.48 220.619C164.647 225.053 167.666 230.439 169.274 236.307C170.13 239.491 170.565 242.774 170.568 246.071C170.615 247.004 170.615 247.94 170.568 248.873C164.429 253.002 157.796 256.344 150.825 258.822C150.825 258.822 150.825 259.53 150.825 260.67C151.01 264.705 151.811 275.023 154.583 275.885ZM188.155 266.245C209.253 255.588 229.92 237.662 230.967 221.123C231.521 212.653 227.548 206.031 223.914 198.485C219.294 189.245 192.682 154.41 186.153 149.205C178.792 143.045 153.474 139.287 153.474 139.287C152.947 136.759 151.525 134.506 149.47 132.942L149.008 132.727C138.767 130.447 128.165 130.31 117.869 132.326C117.676 132.36 117.489 132.422 117.315 132.511C115.953 133.112 114.767 134.049 113.867 135.234C112.967 136.42 112.384 137.814 112.171 139.287C112.171 139.287 96.9867 138.671 87.8699 143.661C74.8397 151.512 62.5875 160.588 51.2795 170.765C50.8838 158.531 51.3367 146.284 52.6347 134.113C47.7516 132.16 42.4468 131.502 37.2347 132.203H36.6803V132.634C31.1363 151.576 18.8471 196.698 26.0851 203.875C31.6291 209.419 78.4451 196.914 83.2191 195.281C77.7059 232.057 70.2215 286.634 69.8827 304.467H72.3775L187.354 304.652H190.804C190.526 299.632 189.51 284.201 188.37 266.768L188.155 266.245ZM184.798 205.507C189.085 210.343 193.116 215.401 196.871 220.661C199.15 224.511 194.068 230.794 186.43 237.139C185.567 223.525 184.828 211.636 184.582 205.723L184.798 205.507Z" fill="black"/>
<path d="M19.0325 18.6738H49.8633C53.8608 18.6738 57.1013 21.9144 57.1013 25.9118V39.8334C57.1013 43.8309 53.8608 47.0714 49.8633 47.0714H19.0325C15.0351 47.0714 11.7945 43.8309 11.7945 39.8334V25.9118C11.7945 21.9144 15.0351 18.6738 19.0325 18.6738Z" stroke="black" stroke-width="2.6488" stroke-linecap="round" stroke-linejoin="round"/>
<path d="M53.7126 20.5221L34.4318 38.9405L14.1655 19.6289" stroke="black" stroke-width="2.6488" stroke-linecap="round" stroke-linejoin="round"/>
<path d="M53.7747 20.5529L34.4323 38.9405L14.1659 19.6289" stroke="black" stroke-width="2.6488" stroke-linecap="round" stroke-linejoin="round"/>
<path d="M55.0378 45.1919L42.1634 31.7939" stroke="black" stroke-width="2.6488" stroke-linecap="round" stroke-linejoin="round"/>
<path d="M14.1359 44.5759L26.3943 31.7939" stroke="black" stroke-width="2.6488" stroke-linecap="round" stroke-linejoin="round"/>
<path d="M24.7304 62.1014H62.1524C63.9594 62.1941 65.73 61.57 67.0795 60.3647C68.429 59.1593 69.2484 57.4702 69.3596 55.6642V8.44782C69.2563 6.63889 68.4393 4.94492 67.0879 3.73796C65.7366 2.531 63.9615 1.90973 62.1524 2.01062H9.20722C7.39816 1.90973 5.62302 2.531 4.27168 3.73796C2.92034 4.94492 2.10332 6.63889 2.00003 8.44782V55.6642C2.11125 57.4702 2.9306 59.1593 4.28009 60.3647C5.62959 61.57 7.4002 62.1941 9.20722 62.1014H16.3836" stroke="black" stroke-width="2.6488" stroke-linecap="round" stroke-linejoin="round"/>
<path d="M16.168 58.2821C16.168 58.2821 17.9544 72.5117 21.6196 75.2837C25.2848 78.0557 24.3608 55.6025 24.3608 55.6025" stroke="black" stroke-width="2.6488" stroke-linecap="round" stroke-linejoin="round"/>
<path d="M41.2088 530.57C34.8024 531.34 28.8888 534.882 30.1208 542.89H101.3V519.574C101.3 519.882 101.3 520.129 101.3 520.344C101.3 520.56 78.9388 520.806 76.9984 520.344H76.1052C71.824 520.806 54.6376 528.999 41.2088 530.57Z" fill="black"/>
<path d="M157.725 542.089V542.797L195.024 542.458L225.269 528.198L215.536 508.271H215.167L194.223 516.586L193.699 516.833C182.58 522.5 182.026 530.077 176.328 529.8C166.472 529.492 158.526 536.822 157.725 542.089Z" fill="black"/>
<path d="M27.5637 119.082C28.4498 118.563 29.4411 118.249 30.4645 118.164C31.488 118.078 32.5175 118.224 33.4773 118.589C35.6641 119.513 37.3889 115.971 35.3253 113.969C34.9099 113.584 34.4557 113.244 33.9701 112.953V112.675C38.8673 111.505 36.7421 108.517 35.1713 107.347C34.6462 106.971 34.0898 106.642 33.5081 106.361V106.361C38.2513 105.776 36.5881 101.526 34.8633 100.417C33.2487 99.378 31.4507 98.6568 29.5657 98.2918L30.8285 85.5714C30.8601 84.8512 31.0335 84.1443 31.3387 83.4912C31.6439 82.8381 32.0748 82.2516 32.6069 81.7652C33.1391 81.2789 33.7619 80.9022 34.4397 80.6569C35.1176 80.4115 35.8372 80.3023 36.5573 80.3354L50.3557 81.7214C51.7808 81.9349 53.0645 82.701 53.9291 83.8538C54.7938 85.0066 55.1697 86.4535 54.9757 87.8814L53.2201 104.76V104.975C49.4317 103.158 44.7809 102.481 43.9801 105.16C42.6865 108.702 52.5733 114.4 52.5733 114.4L51.8341 121.484C51.7986 122.204 51.6214 122.911 51.3125 123.562C51.0037 124.214 50.5693 124.798 50.0343 125.282C49.4993 125.765 48.8741 126.139 48.1946 126.38C47.5151 126.622 46.7947 126.727 46.0745 126.689L32.3069 125.334C29.3193 125.057 25.5001 121.484 27.5637 119.082ZM40.1301 121.915C40.6052 121.915 41.0697 121.774 41.4648 121.51C41.8599 121.247 42.1678 120.871 42.3496 120.432C42.5315 119.993 42.579 119.51 42.4863 119.044C42.3936 118.578 42.1648 118.15 41.8289 117.814C41.4929 117.478 41.0648 117.249 40.5988 117.157C40.1328 117.064 39.6497 117.112 39.2107 117.293C38.7718 117.475 38.3966 117.783 38.1326 118.178C37.8686 118.573 37.7277 119.038 37.7277 119.513C37.7277 120.15 37.9808 120.761 38.4314 121.212C38.8819 121.662 39.4929 121.915 40.1301 121.915Z" fill="black"/>
<path d="M51.2803 170.764C50.8703 158.426 51.3335 146.076 52.6663 133.804" stroke="black" stroke-width="2.6488" stroke-linecap="round" stroke-linejoin="round"/>
<path d="M36.435 132.264C44.0426 130.139 53.991 134.513 53.991 134.513" stroke="black" stroke-width="2.6488" stroke-miterlimit="10"/>
<path d="M113.836 277.825C119.102 282.137 127.942 289.251 135.118 288.05C140.293 287.157 154.399 277.147 154.8 275.484" stroke="black" stroke-width="2.6488" stroke-miterlimit="10"/>
<path d="M188.371 266.799C189.511 284.232 190.527 299.663 190.804 304.683L69.8836 304.468C70.3148 282.107 81.988 201.811 86.8852 171.504" stroke="black" stroke-width="2.6488" stroke-linecap="round" stroke-linejoin="round"/>
<path d="M184.583 205.846C184.829 211.759 185.569 223.679 186.431 237.262" stroke="black" stroke-width="2.6488" stroke-linecap="round" stroke-linejoin="round"/>
<path d="M193.514 516.956C185.414 510.365 123.629 402.596 110.2 329.631" stroke="black" stroke-width="2.6488" stroke-miterlimit="10" stroke-linecap="round"/>
<path d="M187.354 304.929C191.05 375.338 215.074 508.209 215.074 508.209" stroke="black" stroke-width="2.6488" stroke-miterlimit="10" stroke-linecap="round"/>
<path d="M125.601 382.391C119.81 413.838 102.809 510.18 101.176 520.467C101.176 520.467 77.0292 520.96 76.7212 520.467C72.6556 511.597 69.8836 417.503 72.3784 305.576" stroke="black" stroke-width="2.6488" stroke-miterlimit="10" stroke-linecap="round"/>
<path d="M53.2818 104.79L54.9142 87.9118C55.1082 86.4839 54.7322 85.037 53.8676 83.8842C53.003 82.7314 51.7193 81.9654 50.2942 81.7518L36.4958 80.3658C35.0435 80.3072 33.6268 80.8244 32.554 81.805C31.4811 82.7856 30.8389 84.1501 30.767 85.6018L29.4734 98.5994" stroke="black" stroke-width="2.6488" stroke-miterlimit="10"/>
<path d="M20.8799 115.016C14.3195 106.084 28.1795 102.203 35.2019 107.347C36.7727 108.517 38.8979 111.505 34.0007 112.675" stroke="black" stroke-width="2.6488" stroke-miterlimit="10"/>
<path d="M21.0349 106.792C15.3985 97.5518 28.2421 95.8886 34.9873 100.385C36.6505 101.494 38.3753 105.745 33.6321 106.33" stroke="black" stroke-width="2.6488" stroke-miterlimit="10"/>
<path d="M37.5117 132.048C37.5117 132.048 25.1917 133.187 20.8797 124.933C19.856 123.202 19.477 121.164 19.8095 119.18C20.142 117.197 21.1646 115.394 22.6969 114.091C24.4662 112.607 26.7017 111.794 29.0109 111.794C31.3202 111.794 33.5556 112.607 35.3249 114.091C37.3885 116.093 35.6637 119.635 33.4769 118.711C32.5171 118.346 31.4876 118.201 30.4642 118.286C29.4408 118.371 28.4495 118.685 27.5633 119.204C25.4997 121.637 29.3189 125.179 32.1833 125.364L45.9509 126.719C46.6835 126.774 47.4196 126.68 48.1154 126.444C48.8112 126.209 49.4524 125.836 50.0012 125.347C50.5499 124.859 50.9949 124.265 51.3097 123.601C51.6245 122.938 51.8027 122.217 51.8337 121.483L52.5113 114.369C52.5113 114.369 42.6245 108.732 43.9181 105.129C45.2117 101.525 53.7741 104.174 57.1005 107.469C61.8745 112.182 63.2605 129.923 52.6345 133.834" stroke="black" stroke-width="2.6488" stroke-linejoin="round"/>
<path d="M83.4661 195.189C80.7865 196.297 31.7837 209.541 26.0857 203.874C18.8477 196.698 31.1369 151.514 36.6809 132.634" stroke="black" stroke-width="2.6488" stroke-miterlimit="10"/>
<path d="M150.703 260.423C144.543 261.809 137.366 257.343 132.746 256.696C130.358 256.497 127.958 256.497 125.57 256.696C124.903 256.772 124.279 257.063 123.793 257.526C123.307 257.989 122.985 258.598 122.877 259.261C122.769 259.923 122.88 260.603 123.194 261.197C123.508 261.79 124.007 262.265 124.615 262.548C126.124 263.411 130.375 264.858 132.531 265.628C135.611 266.953 135.611 273.79 133.67 275.392C129.389 279.119 115.19 278.041 115.19 278.041" stroke="black" stroke-width="2.6488" stroke-miterlimit="10"/>
<path d="M166.472 321.684C169.552 338.285 186.03 343.244 201.153 340.687" stroke="black" stroke-width="2.6488" stroke-miterlimit="10" stroke-linecap="round"/>
<path d="M75.9817 520.497C71.8237 520.805 54.6373 528.998 41.2085 530.569C34.7713 531.339 28.6421 534.942 30.1513 543.166L101.115 543.443" stroke="black" stroke-width="2.6488" stroke-linecap="round" stroke-linejoin="round"/>
<path d="M101.33 548.864H30.0276V543.012H101.33V548.864Z" stroke="black" stroke-width="2.6488" stroke-linecap="round" stroke-linejoin="round"/>
<path d="M101.3 519.697V542.951" stroke="black" stroke-width="2.6488" stroke-miterlimit="10"/>
<path d="M228.534 534.48L196.379 548.956L157.694 548.648V542.796L195.024 542.458L225.27 528.197L228.534 534.48Z" stroke="black" stroke-width="2.6488" stroke-linecap="round" stroke-linejoin="round"/>
<path d="M157.725 542.089C158.526 536.822 166.472 529.492 176.205 529.954C181.995 530.231 182.365 522.439 194.1 516.741L215.413 508.271L225.146 528.198" stroke="black" stroke-width="2.6488" stroke-linecap="round" stroke-linejoin="round"/>
<path d="M170.414 249.242C170.414 248.133 170.414 246.993 170.414 245.823C170.418 239.21 168.665 232.714 165.335 227.001C162.004 221.287 157.215 216.561 151.458 213.306C145.702 210.051 139.183 208.384 132.571 208.475C125.958 208.566 119.488 210.412 113.823 213.824C108.158 217.237 103.502 222.093 100.329 227.896C97.1574 233.699 95.5839 240.24 95.7699 246.851C95.9559 253.462 97.8948 259.904 101.388 265.52C104.882 271.135 109.804 275.721 115.652 278.81" stroke="black" stroke-width="2.6488" stroke-miterlimit="10"/>
<path d="M169.521 236.091C169.521 236.091 124.8 226.851 97.6956 256.481" stroke="black" stroke-width="2.6488" stroke-miterlimit="10"/>
<path d="M132.499 276.501C132.499 276.501 91.2889 259.838 110.724 216.256" stroke="black" stroke-width="2.6488" stroke-miterlimit="10"/>
<path d="M135.826 257.435C128.496 255.279 121.042 248.995 119.995 240.587C118.486 228.513 124.061 213.36 153.659 214.376" stroke="black" stroke-width="2.6488" stroke-miterlimit="10"/>
<path d="M160.004 180.343C173.677 192.52 186.063 206.072 196.964 220.783C202.754 230.578 160.774 256.173 150.702 258.575C150.702 258.575 151.102 275.792 154.922 275.946C178.792 276.901 229.304 247.364 230.967 221.245C231.521 212.775 227.548 206.153 223.914 198.607C219.294 189.244 192.682 154.409 186.153 149.204C178.792 143.044 153.474 139.287 153.474 139.287C152.947 136.758 151.525 134.505 149.47 132.942C147.098 131.525 128.218 129.461 117.869 132.326C116.373 132.852 115.05 133.78 114.045 135.008C113.04 136.235 112.392 137.715 112.171 139.287C112.171 139.287 96.9867 138.671 87.8699 143.66C72.7319 152.774 58.5895 163.448 45.6739 175.507" stroke="black" stroke-width="2.6488" stroke-linecap="round" stroke-linejoin="round"/>
<path d="M191.852 228.945C179.316 242.805 155.692 255.095 148.331 256.912C148.331 256.912 149.286 277.301 153.506 277.979C165.826 279.95 186.061 271.08 203.001 260.669" stroke="white" stroke-width="2.6488" stroke-linecap="round" stroke-linejoin="round"/>
<path d="M147.006 66.043C146.051 59.0514 144.788 48.7026 139.922 43.2818C124.306 25.849 106.227 61.3614 103.332 72.819C100.591 83.4758 115.652 107.469 119.964 109.194C126.493 111.781 135.733 105.652 138.69 99.5842" stroke="black" stroke-width="2.6488" stroke-miterlimit="10" stroke-linecap="round"/>
<path d="M149.223 132.572C149.223 114.339 150.209 97.7682 148.669 79.5654" stroke="black" stroke-width="2.6488" stroke-miterlimit="10"/>
<path d="M121.719 108.949C119.995 116.218 119.656 125.488 116.607 132.08" stroke="black" stroke-width="2.6488" stroke-miterlimit="10"/>
<path d="M144.511 69.3084C153.104 56.6188 159.48 73.2816 156.153 77.6552C154.028 80.458 149.47 79.9652 146.913 78.6408" stroke="black" stroke-width="2.6488" stroke-miterlimit="10" stroke-linecap="round"/>
<path d="M113.865 51.2603C112.818 51.2603 88.1166 46.3323 91.597 39.5563C95.5394 31.8255 143.156 56.2807 146.113 57.5743" stroke="black" stroke-width="2.6488" stroke-miterlimit="10"/>
<path d="M127.787 70.6329C129.052 70.2625 130.386 70.1894 131.684 70.4191C132.982 70.6488 134.21 71.1752 135.271 71.9572" stroke="black" stroke-width="2.6488" stroke-miterlimit="10" stroke-linecap="round"/>
<path d="M148.516 71.7725C149.833 72.9754 151.538 73.6643 153.321 73.7129" stroke="black" stroke-width="2.6488" stroke-miterlimit="10" stroke-linecap="round"/>
<path d="M130.128 78.888C129.413 78.888 128.834 78.3088 128.834 77.5944C128.834 76.8799 129.413 76.3008 130.128 76.3008C130.842 76.3008 131.421 76.8799 131.421 77.5944C131.421 78.3088 130.842 78.888 130.128 78.888Z" fill="black"/>
<path d="M113.219 78.4563C112.504 78.4563 111.925 77.8772 111.925 77.1627C111.925 76.4483 112.504 75.8691 113.219 75.8691C113.933 75.8691 114.512 76.4483 114.512 77.1627C114.512 77.8772 113.933 78.4563 113.219 78.4563Z" fill="black"/>
<path d="M111.063 71.1254C113.096 70.1706 117.716 70.4478 118.516 72.4498C119.841 75.5298 117.87 82.3674 117.038 86.2174C116.453 88.8662 115.529 93.9482 120.118 92.5622" stroke="black" stroke-width="2.6488" stroke-miterlimit="10" stroke-linecap="round"/>
<path d="M126.433 99.1232C125.884 99.7106 125.212 100.169 124.465 100.464C123.718 100.76 122.914 100.886 122.113 100.833C121.311 100.78 120.531 100.549 119.829 100.158C119.127 99.766 118.521 99.2234 118.055 98.5688" stroke="black" stroke-width="2.6488" stroke-miterlimit="10" stroke-linecap="round"/>
<path d="M16.6296 23.7864C12.2409 23.7864 8.68316 20.2286 8.68316 15.84C8.68316 11.4513 12.2409 7.89355 16.6296 7.89355C21.0182 7.89355 24.5759 11.4513 24.5759 15.84C24.5759 20.2286 21.0182 23.7864 16.6296 23.7864Z" fill="white"/>
<path d="M16.7228 5.9541C18.6904 5.9541 20.6138 6.53757 22.2498 7.63071C23.8858 8.72385 25.1609 10.2776 25.9139 12.0954C26.6669 13.9132 26.8638 15.9135 26.48 17.8433C26.0961 19.7731 25.1486 21.5458 23.7573 22.9371C22.366 24.3284 20.5934 25.2759 18.6636 25.6597C16.7338 26.0436 14.7335 25.8466 12.9157 25.0936C11.0978 24.3407 9.5441 23.0655 8.45096 21.4295C7.35781 19.7935 6.77434 17.8701 6.77434 15.9025C6.77434 13.264 7.82247 10.7336 9.68815 8.86792C11.5538 7.00223 14.0843 5.9541 16.7228 5.9541V5.9541ZM15.0288 20.6765C15.0288 20.8504 15.063 21.0226 15.1296 21.1833C15.1961 21.344 15.2937 21.49 15.4167 21.613C15.5397 21.736 15.6856 21.8335 15.8463 21.9001C16.007 21.9666 16.1792 22.0009 16.3531 22.0009C16.7073 22.001 17.0474 21.8624 17.3007 21.6149C17.554 21.3674 17.7003 21.0306 17.7083 20.6765V14.7937L17.8624 15.0401C17.9557 15.1895 18.0778 15.3188 18.2217 15.4205C18.3656 15.5221 18.5284 15.594 18.7004 15.6319C18.8724 15.6699 19.0503 15.6731 19.2236 15.6415C19.3969 15.6099 19.5621 15.544 19.7097 15.4477C19.8572 15.3514 19.984 15.2266 20.0827 15.0807C20.1814 14.9348 20.2501 14.7706 20.2845 14.5979C20.319 14.4251 20.3187 14.2472 20.2835 14.0746C20.2484 13.9019 20.1792 13.7381 20.08 13.5925L17.4619 9.6193C17.3106 9.37815 17.0823 9.19521 16.8139 9.10017C16.5455 9.00512 16.2529 9.00355 15.9836 9.0957C15.7096 9.1753 15.4687 9.34121 15.2967 9.56874C15.1247 9.79627 15.0307 10.0733 15.0288 10.3585V20.6765Z" fill="black"/>
</svg>
