<svg width="473" height="532" viewBox="0 0 473 532" fill="none" xmlns="http://www.w3.org/2000/svg">
<path d="M464.078 178.207C459.458 168.72 429.859 126.801 423.36 121.473C420.54 119.415 417.425 117.796 414.12 116.668L413.874 117.346C409.079 140.608 413.591 164.823 426.44 184.798C431.06 192.498 435.434 197.826 437.159 200.413C439.315 204.048 434.972 209.099 428.165 214.15C417.024 222.025 404.803 228.249 391.883 232.63V232.384C392.56 230.967 388.341 226.932 383.351 226.624H382.519V230.166C380.795 235.125 371.893 234.263 368.013 233.616C366.688 233.369 360.436 230.813 360.436 228.903V228.595C359.968 228.549 359.495 228.598 359.047 228.741C358.599 228.884 358.185 229.117 357.83 229.425C357.475 229.734 357.187 230.112 356.984 230.536C356.781 230.96 356.666 231.421 356.647 231.891C356.808 232.925 357.21 233.907 357.82 234.758C358.43 235.608 359.231 236.304 360.159 236.788C359.748 236.698 359.323 236.699 358.912 236.79C358.502 236.881 358.116 237.06 357.782 237.315C357.448 237.57 357.174 237.894 356.978 238.266C356.782 238.638 356.669 239.048 356.647 239.468C356.844 240.402 357.255 241.278 357.849 242.027C358.442 242.775 359.201 243.375 360.066 243.78C359.687 243.662 359.287 243.633 358.895 243.693C358.503 243.753 358.129 243.901 357.803 244.127C357.477 244.352 357.206 244.649 357.011 244.994C356.816 245.34 356.702 245.725 356.678 246.121C356.678 247.229 358.064 248.523 360.467 249.632C367.491 252.223 375.109 252.758 382.427 251.172C386.279 250.858 390.082 250.104 393.761 248.923L394.531 247.784C406.542 248.026 418.468 245.716 429.52 241.008C450.711 232.599 470.238 217.353 471.316 200.752C471.685 192.405 467.712 185.907 464.078 178.207Z" fill="black"/>
<path d="M372.356 402.831C378.516 429.966 386.431 456.115 394.316 480.601H394.562H430.568C430.752 458.641 430.906 431.321 430.999 402.708H372.479L372.356 402.831Z" fill="black"/>
<path d="M394.747 522.273C375.251 524.675 362.192 514.912 359.204 526.831L359.666 529.665H430.075C430.075 529.665 430.075 524.029 430.229 514.265H429.428C417.046 513.464 405.928 520.887 394.747 522.273Z" fill="black"/>
<path d="M370.477 147.531C375.004 148.886 391.113 118.856 393.053 110.879C393.053 92.9221 390.343 77.1833 388.833 59.1961V58.9189C390.089 59.405 391.461 59.5094 392.776 59.219C394.091 58.9286 395.291 58.2564 396.225 57.2865C399.305 53.3749 394.408 39.6073 387.232 45.8289H387.078C387.078 44.7201 386.893 44.3197 386.708 43.1185V42.5025H386.431C386.431 42.5025 374.388 41.0549 365.733 41.0549C357.633 41.0549 345.529 42.5025 345.529 42.5025C345.201 42.5345 344.871 42.5345 344.543 42.5025V42.7797C343.869 46.0317 343.539 49.3455 343.557 52.6665C343.557 63.6929 355.877 87.3473 360.22 89.0721C360.755 89.2908 361.313 89.4459 361.883 89.5341C360.681 97.6358 358.52 105.566 355.446 113.158C355.908 118.147 365.087 145.867 370.477 147.531Z" fill="black"/>
<path d="M365.887 29.1963C371.339 29.1963 380.024 29.9355 384.182 30.3051V30.1203C383.367 27.4667 381.991 25.0193 380.147 22.9439C369.552 11.0859 356.709 16.6299 349.347 29.8123V30.1819C353.906 29.7815 361.359 29.1963 365.887 29.1963Z" fill="black"/>
<path d="M360.806 197.148C360.765 197.374 360.774 197.606 360.833 197.827C360.892 198.049 360.998 198.255 361.145 198.431C361.292 198.607 361.475 198.749 361.683 198.847C361.89 198.944 362.116 198.995 362.346 198.996H380.179C380.408 198.995 380.634 198.944 380.842 198.847C381.049 198.749 381.233 198.607 381.379 198.431C381.526 198.255 381.632 198.049 381.691 197.827C381.75 197.606 381.759 197.374 381.719 197.148C381.276 194.698 379.986 192.48 378.075 190.884C376.164 189.287 373.753 188.412 371.262 188.412C368.772 188.412 366.36 189.287 364.449 190.884C362.538 192.48 361.248 194.698 360.806 197.148Z" fill="black"/>
<path d="M336.35 115.498C334.376 116.026 332.473 116.791 330.683 117.777C320.427 123.629 288.179 150.979 288.179 150.979C278.622 137.83 270.37 123.781 263.539 109.03C263.539 109.03 263.539 109.03 263.539 109.03L262.738 109.399L248.324 111.432C249.71 116.145 251.404 122.089 253.529 128.619C261.445 153.875 273.272 187.139 280.387 186.707C293.323 185.691 323.507 168.72 324.585 168.227C324.877 168.066 325.155 167.881 325.416 167.673C328.681 165.271 339.923 154.121 337.182 116.268L336.35 115.498Z" fill="black"/>
<path d="M297.789 452.912C285.961 452.111 275.243 459.534 264.586 460.92C245.767 463.322 233.447 453.558 230.367 465.478V466.679L298.127 466.371C298.127 466.371 297.912 461.135 297.635 452.912H297.789Z" fill="black"/>
<path d="M252.112 320.502C246.414 336.457 257.841 384.936 265.726 414.442H296.988C296.741 388.262 297.265 360.758 300.376 354.629C298.158 353.058 276.999 338.151 252.451 319.64C252.328 319.917 252.205 320.225 252.112 320.502Z" fill="black"/>
<path d="M245.12 100.929L259.288 99.4811C261.752 88.6395 262.738 65.6011 259.104 62.5211C257.841 61.3815 256.024 61.0735 255.531 62.9831C255.007 60.9503 254.176 59.6567 252.82 59.6567C250.757 59.6567 249.74 60.8271 249.494 63.1063C249.369 62.7579 249.164 62.4432 248.897 62.1867C248.63 61.9302 248.307 61.739 247.954 61.6279C244.32 60.8579 245.274 68.5579 245.305 70.4367C245.305 75.9191 245.767 80.5083 245.305 86.6375C245.305 85.5595 245.028 84.4815 244.874 83.5575C244.73 82.1245 244.366 80.7221 243.796 79.3995C243.365 78.5371 242.318 77.3667 241.116 77.9519C239.268 78.8451 239.484 81.5247 239.546 83.0031C239.607 87.3459 241.486 101.36 245.12 100.929Z" fill="black"/>
<path d="M227.872 100.313C219.156 97.2327 214.598 98.9883 213.735 99.3887C212.411 102.715 210.963 106.072 209.392 109.399C202.522 124.002 194.271 137.915 184.752 150.948C184.752 150.948 155.092 128.895 144.712 123.228C135.472 118.208 120.38 118.824 120.38 118.824C120.184 117.402 119.64 116.051 118.797 114.891C117.953 113.73 116.836 112.796 115.545 112.171L114.867 111.986C104.568 109.993 93.9686 110.14 83.7283 112.417L83.2971 112.633C81.3177 114.199 79.9543 116.413 79.4471 118.885C79.4471 118.885 54.2527 122.612 46.8915 128.68C40.3619 134.039 13.7199 168.72 9.13072 178.206C5.49633 185.752 1.52313 192.405 2.04673 200.844C3.15553 217.753 23.2371 233.184 44.7663 241.5V241.839C43.9655 259.333 42.8567 272.639 42.2407 284.281H45.5671L160.636 284.096H163.131C162.761 265.154 154.322 204.632 148.778 168.165C149.733 168.627 180.04 185.598 192.976 186.645C199.506 187.138 210.101 158.925 217.986 134.501C223.838 116.329 228.18 100.436 228.18 100.436H227.934L227.872 100.313ZM125.986 195.793H111.756L109.847 208.883H110.432C110.757 208.924 111.07 209.03 111.354 209.194C111.637 209.358 111.885 209.577 112.083 209.838C112.281 210.099 112.425 210.397 112.506 210.714C112.587 211.031 112.605 211.362 112.557 211.686L111.941 222.958L111.664 227.825C112.125 227.796 112.586 227.859 113.022 228.012C113.457 228.164 113.858 228.403 114.2 228.713C114.542 229.023 114.818 229.399 115.012 229.818C115.206 230.236 115.314 230.69 115.329 231.151C115.161 232.183 114.757 233.162 114.148 234.011C113.539 234.861 112.741 235.558 111.818 236.048C112.225 235.988 112.641 236.009 113.039 236.112C113.438 236.215 113.812 236.397 114.14 236.646C114.467 236.896 114.741 237.209 114.945 237.567C115.15 237.924 115.28 238.319 115.329 238.728C115.149 239.669 114.744 240.553 114.149 241.303C113.553 242.054 112.786 242.65 111.91 243.04C112.292 242.916 112.697 242.882 113.093 242.941C113.49 243 113.868 243.15 114.196 243.38C114.525 243.61 114.795 243.913 114.987 244.266C115.178 244.618 115.285 245.011 115.298 245.411C115.298 246.859 113.204 248.738 109.446 250.032L110.309 250.37L109.939 257.239C109.958 257.838 109.749 258.422 109.355 258.873C108.961 259.325 108.41 259.61 107.814 259.672H92.9991C92.403 259.61 91.8524 259.325 91.4582 258.873C91.0639 258.422 90.8551 257.838 90.8739 257.239L90.5351 251.079V250.74C86.9422 250.017 83.418 248.986 80.0015 247.66H79.1083C82.1883 245.442 81.2335 231.798 81.2335 231.798C80.8947 230.289 84.5291 226.47 88.8103 226.162H89.0875L88.9027 222.342L88.6871 217.414C87.1814 217.322 85.7342 216.797 84.5186 215.904C83.303 215.01 82.3705 213.786 81.8324 212.377C81.2943 210.967 81.1735 209.433 81.4844 207.957C81.7953 206.48 82.5247 205.125 83.5856 204.052C84.6464 202.98 85.9937 202.235 87.4663 201.908C88.939 201.581 90.4747 201.685 91.8899 202.207C93.3051 202.73 94.5399 203.649 95.4467 204.854C96.3534 206.06 96.8938 207.501 97.0031 209.006H105.596L108.153 191.82H126.294L125.986 195.793Z" fill="black"/>
<path d="M191.652 510.2C178.254 508.629 161.067 500.436 156.909 500.128H156.016C154.076 500.652 131.715 500.128 131.715 500.128C131.715 500.128 131.715 499.666 131.715 499.358V523.136L202.832 522.828C204.218 514.543 198.12 510.939 191.652 510.2Z" fill="black"/>
<path d="M56.5629 509.584C50.8649 509.861 50.4029 502.285 39.1917 496.617L38.6681 496.34L17.8473 488.055H17.4777L7.74493 507.983L37.9905 522.243L75.2893 522.582V521.627C74.3653 516.453 66.4189 509.122 56.5629 509.584Z" fill="black"/>
<path d="M264.709 529.973C282.944 529.973 297.727 515.77 297.727 498.249C297.727 480.728 282.944 466.525 264.709 466.525C246.474 466.525 231.692 480.728 231.692 498.249C231.692 515.77 246.474 529.973 264.709 529.973Z" stroke="black" stroke-width="2.6488" stroke-miterlimit="10" stroke-linecap="round"/>
<path d="M231.076 498.188C231.076 498.188 263.909 511.463 297.142 498.188" stroke="black" stroke-width="2.6488" stroke-miterlimit="10"/>
<path d="M264.987 466.463V529.942" stroke="black" stroke-width="2.6488" stroke-miterlimit="10"/>
<path d="M288.179 476.167C275.027 479.924 270.9 488.486 272.009 503.671" stroke="black" stroke-width="2.6488" stroke-miterlimit="10"/>
<path d="M287.44 520.641C277.06 519.778 272.564 513.926 272.04 503.67" stroke="black" stroke-width="2.6488" stroke-miterlimit="10"/>
<path d="M240.377 476.167C253.56 479.924 257.656 488.486 256.578 503.671" stroke="black" stroke-width="2.6488" stroke-miterlimit="10"/>
<path d="M241.147 520.641C251.527 519.778 256.024 513.926 256.547 503.67" stroke="black" stroke-width="2.6488" stroke-miterlimit="10"/>
<path d="M131.685 529.018H202.987V523.166H131.685V529.018Z" stroke="black" stroke-width="2.6488" stroke-linecap="round" stroke-linejoin="round"/>
<path d="M359.235 309.106C361.452 377.759 382.366 444.873 401.061 501.452C401.061 501.452 383.105 509.46 369.676 511.062C363.239 511.801 357.11 515.405 358.619 523.628L359.604 529.788H430.013C430.013 529.788 431.738 372.708 430.475 283.388" stroke="black" stroke-width="2.6488" stroke-miterlimit="10"/>
<path d="M311.494 283.42C293.261 291.028 256.054 309.477 252.112 320.38C243.734 343.88 272.44 438.036 272.44 438.036C266.927 439.514 254.176 445.982 240.747 447.553C234.279 448.323 228.18 451.896 229.69 460.15L230.552 466.557L298.312 466.249C298.312 466.249 293.815 359.712 301.084 353.521C314.821 341.786 339.122 334.486 360.313 335.041" stroke="black" stroke-width="2.6488" stroke-miterlimit="10"/>
<path d="M44.613 241.839C43.8122 259.334 42.7034 272.639 42.0874 284.282L163.008 284.066C162.608 261.705 150.904 181.441 146.007 151.133" stroke="black" stroke-width="2.6488" stroke-linecap="round" stroke-linejoin="round"/>
<path d="M39.2224 496.586C47.3228 489.964 109.108 382.225 122.536 309.26" stroke="black" stroke-width="2.6488" stroke-miterlimit="10" stroke-linecap="round"/>
<path d="M45.5674 284.467C41.8714 354.875 17.8474 487.747 17.8474 487.747" stroke="black" stroke-width="2.6488" stroke-miterlimit="10" stroke-linecap="round"/>
<path d="M107.167 362.022C112.958 393.438 129.959 489.811 131.592 500.098C131.592 500.098 155.739 500.591 156.016 500.098C160.082 491.228 162.885 397.134 160.39 285.207" stroke="black" stroke-width="2.6488" stroke-miterlimit="10" stroke-linecap="round"/>
<path d="M66.419 301.437C63.339 318.038 46.861 322.997 31.7382 320.44" stroke="black" stroke-width="2.6488" stroke-miterlimit="10" stroke-linecap="round"/>
<path d="M156.909 500.067C161.067 500.375 178.254 508.567 191.652 510.138C198.12 510.877 204.218 514.481 202.74 522.735L131.622 523.043" stroke="black" stroke-width="2.6488" stroke-linecap="round" stroke-linejoin="round"/>
<path d="M131.592 499.327V522.581" stroke="black" stroke-width="2.6488" stroke-miterlimit="10"/>
<path d="M4.32654 514.112L36.5125 528.588L75.1973 528.28V522.428L37.8677 522.089L7.62214 507.828L4.32654 514.112Z" stroke="black" stroke-width="2.6488" stroke-linecap="round" stroke-linejoin="round"/>
<path d="M75.1661 521.627C74.3653 516.36 66.4189 509.03 56.6861 509.492C50.8957 509.769 50.5261 501.946 38.7913 496.248L17.4777 487.808L7.74493 507.736" stroke="black" stroke-width="2.6488" stroke-linecap="round" stroke-linejoin="round"/>
<path d="M85.8849 45.7044C86.8397 38.7128 88.1025 28.364 92.9689 22.9432C108.554 5.51037 126.664 41.0228 129.559 52.4496C132.3 63.1064 117.239 87.1304 112.927 88.8552C106.398 91.4424 97.1269 85.3132 94.2009 79.2456" stroke="black" stroke-width="2.6488" stroke-miterlimit="10" stroke-linecap="round"/>
<path d="M83.6667 112.202C83.6667 93.9375 82.6811 77.3979 84.2211 59.1951" stroke="black" stroke-width="2.6488" stroke-miterlimit="10"/>
<path d="M111.141 88.5481C112.034 96.4021 113.05 105.55 116.1 112.172" stroke="black" stroke-width="2.6488" stroke-miterlimit="10"/>
<path d="M88.3793 48.9082C79.7861 36.2186 73.4105 52.9122 76.7369 57.2858C78.8621 60.0886 83.4205 59.565 85.9769 58.2406" stroke="black" stroke-width="2.6488" stroke-miterlimit="10" stroke-linecap="round"/>
<path d="M119.025 30.89C120.072 30.89 144.774 25.962 141.293 19.186C137.351 11.4244 89.7035 35.9104 86.7775 37.204" stroke="black" stroke-width="2.6488" stroke-miterlimit="10"/>
<path d="M105.104 50.3863C103.84 50.0014 102.503 49.9207 101.203 50.1509C99.9018 50.381 98.6739 50.9155 97.6191 51.7107" stroke="black" stroke-width="2.6488" stroke-miterlimit="10" stroke-linecap="round"/>
<path d="M84.3754 51.4033C83.056 52.6945 81.2931 53.4327 79.4474 53.4669" stroke="black" stroke-width="2.6488" stroke-miterlimit="10" stroke-linecap="round"/>
<path d="M102.732 58.5171C103.446 58.5171 104.025 57.938 104.025 57.2235C104.025 56.5091 103.446 55.9299 102.732 55.9299C102.017 55.9299 101.438 56.5091 101.438 57.2235C101.438 57.938 102.017 58.5171 102.732 58.5171Z" fill="black"/>
<path d="M119.672 58.087C120.386 58.087 120.965 57.5078 120.965 56.7934C120.965 56.0789 120.386 55.4998 119.672 55.4998C118.957 55.4998 118.378 56.0789 118.378 56.7934C118.378 57.5078 118.957 58.087 119.672 58.087Z" fill="black"/>
<path d="M121.828 50.7245C119.796 49.8005 115.176 50.0777 114.344 52.0797C113.05 55.1597 115.022 61.9973 115.853 65.8473C116.408 68.4653 117.362 73.5781 112.773 72.1921" stroke="black" stroke-width="2.6488" stroke-miterlimit="10" stroke-linecap="round"/>
<path d="M213.766 99.4199C206.202 117.679 196.516 134.984 184.906 150.979C184.906 150.979 155.246 128.926 144.866 123.259C135.626 118.239 120.534 118.855 120.534 118.855C120.303 117.307 119.657 115.851 118.665 114.642C117.672 113.433 116.37 112.515 114.898 111.986C104.549 109.153 85.6379 111.186 83.2971 112.633C81.3177 114.199 79.9543 116.413 79.4471 118.886C79.4471 118.886 54.2527 122.612 46.8915 128.68C40.3619 134.039 13.7507 168.72 9.13073 178.206C5.49633 185.752 1.52313 192.405 2.04673 200.844C3.74073 226.994 50.8647 249.632 78.5539 247.814C82.3731 247.568 81.4491 231.675 81.4491 231.675C71.4083 229.242 30.3827 210.115 36.1731 200.413C47.0793 185.696 59.4639 172.135 73.1331 159.942" stroke="black" stroke-width="2.6488" stroke-linejoin="round"/>
<path d="M227.996 86.4528C227.688 80.2928 227.657 75.8576 227.78 70.3752C227.78 68.4964 228.766 60.7964 225.132 61.5664C221.497 62.3364 222.483 79.2148 222.544 81.8328" stroke="black" stroke-width="2.6488" stroke-linecap="round" stroke-linejoin="round"/>
<path d="M223.53 63.0151C223.191 60.7359 222.267 59.5347 220.204 59.5655C215.645 59.5655 216.754 74.9655 216.662 81.9879" stroke="black" stroke-width="2.6488" stroke-linecap="round" stroke-linejoin="round"/>
<path d="M227.995 100.344C231.63 100.775 233.693 86.4842 233.878 82.0798C233.878 80.6322 234.125 77.9526 232.307 77.0594C231.075 76.4742 230.028 77.6138 229.597 78.4762C229.03 79.8 228.667 81.2018 228.519 82.6342C228.273 84.4822 227.934 86.6998 227.718 88.5478" stroke="black" stroke-width="2.6488" stroke-linecap="round" stroke-linejoin="round"/>
<path d="M217.369 62.8605C217.031 60.9509 215.06 61.2589 213.797 62.3985C210.162 65.6633 211.148 88.6401 213.612 99.3585C213.612 99.3585 218.17 96.7405 227.872 100.19" stroke="black" stroke-width="2.6488" stroke-linecap="round" stroke-linejoin="round"/>
<path d="M148.717 168.135C149.671 168.597 179.979 185.537 192.915 186.615C204.341 187.539 228.119 100.375 228.119 100.375" stroke="black" stroke-width="2.6488" stroke-miterlimit="10"/>
<path d="M106.059 209.007H90.4125C90.0859 209.044 89.7703 209.147 89.4847 209.31C89.1991 209.473 88.9495 209.692 88.7509 209.954C88.5523 210.216 88.4088 210.515 88.3291 210.834C88.2494 211.153 88.2352 211.485 88.2873 211.809L89.2421 229.889" stroke="black" stroke-width="2.6488" stroke-miterlimit="10"/>
<path d="M111.633 228.657L112.557 211.809C112.605 211.485 112.587 211.155 112.506 210.838C112.425 210.521 112.281 210.223 112.083 209.962C111.885 209.701 111.637 209.482 111.354 209.318C111.07 209.154 110.757 209.048 110.432 209.007H109.231" stroke="black" stroke-width="2.6488" stroke-miterlimit="10"/>
<path d="M90.5357 251.11L90.8745 257.27C90.8557 257.869 91.0645 258.453 91.4587 258.905C91.853 259.356 92.4036 259.641 92.9997 259.703H107.938C108.537 259.649 109.092 259.365 109.487 258.912C109.883 258.459 110.089 257.871 110.063 257.27L110.433 250.587" stroke="black" stroke-width="2.6488" stroke-miterlimit="10"/>
<path d="M89.2108 229.52C90.9664 234.479 100.052 233.647 103.995 232.969C105.442 232.723 112.372 229.889 111.664 227.98" stroke="black" stroke-width="2.6488" stroke-miterlimit="10"/>
<path d="M111.757 227.949C112.217 227.92 112.679 227.984 113.115 228.136C113.55 228.289 113.951 228.527 114.293 228.837C114.634 229.147 114.91 229.523 115.104 229.942C115.298 230.361 115.406 230.814 115.422 231.275C115.176 235.957 106.613 240.177 97.2808 238.729" stroke="black" stroke-width="2.6488" stroke-miterlimit="10" stroke-linecap="round"/>
<path d="M111.91 236.172C112.318 236.111 112.733 236.133 113.132 236.236C113.53 236.339 113.905 236.52 114.232 236.77C114.559 237.02 114.833 237.333 115.038 237.69C115.242 238.048 115.372 238.443 115.421 238.852C115.175 242.948 106.921 246.736 97.5883 245.474" stroke="black" stroke-width="2.6488" stroke-miterlimit="10" stroke-linecap="round"/>
<path d="M112.034 243.225C112.415 243.1 112.82 243.066 113.217 243.125C113.613 243.184 113.991 243.335 114.32 243.565C114.648 243.795 114.919 244.098 115.11 244.451C115.301 244.803 115.408 245.195 115.422 245.596C115.422 249.385 101.408 256.007 80.0632 247.66" stroke="black" stroke-width="2.6488" stroke-miterlimit="10" stroke-linecap="round"/>
<path d="M81.2031 231.799C80.6179 230.351 84.2831 226.347 88.7491 226.008" stroke="black" stroke-width="2.6488" stroke-miterlimit="10" stroke-linecap="round"/>
<path d="M391.698 232.384C392.376 230.968 388.156 226.933 383.167 226.625" stroke="black" stroke-width="2.6488" stroke-miterlimit="10" stroke-linecap="round"/>
<path d="M89.0266 222.159C96.203 219.294 97.3426 227.733 106.86 226.871C107.943 226.69 108.968 226.251 109.846 225.592C110.725 224.932 111.433 224.072 111.911 223.083" stroke="black" stroke-width="2.6488" stroke-miterlimit="10" stroke-linecap="round"/>
<path d="M107.26 226.562L111.756 195.916L125.986 195.855L126.294 191.82H108.153L103.04 226.193" stroke="black" stroke-width="2.6488" stroke-linecap="round" stroke-linejoin="round"/>
<path d="M429.613 241.746C430.783 260.873 431.861 278.429 432.169 283.819L311.248 283.604C311.679 261.243 320.673 197.949 325.601 167.642" stroke="black" stroke-width="2.6488" stroke-linecap="round" stroke-linejoin="round"/>
<path d="M426.286 184.737C426.564 190.435 427.211 200.722 427.981 213.658" stroke="black" stroke-width="2.6488" stroke-linecap="round" stroke-linejoin="round"/>
<path d="M384.121 30.1203C383.306 27.4667 381.93 25.0193 380.087 22.9439C369.491 11.0859 356.648 16.6299 349.286 29.8123" stroke="black" stroke-width="2.6488" stroke-miterlimit="10" stroke-linecap="round"/>
<path d="M387.17 45.7053C387.17 44.5965 386.986 44.1961 386.801 42.9949" stroke="black" stroke-width="2.6488" stroke-miterlimit="10" stroke-linecap="round"/>
<path d="M393.053 111.525C393.053 93.2604 390.373 77.3984 388.833 59.1648" stroke="black" stroke-width="2.6488" stroke-miterlimit="10"/>
<path d="M384.983 48.5073C393.669 34.7705 400.044 52.8193 396.718 57.5317C395.557 58.7794 393.989 59.5731 392.296 59.7706C390.603 59.9681 388.895 59.5566 387.478 58.6097" stroke="white" stroke-width="1.9096" stroke-miterlimit="10" stroke-linecap="round"/>
<path d="M367.951 50.3863C369.214 50.0014 370.551 49.9207 371.852 50.1509C373.153 50.381 374.38 50.9155 375.435 51.7107" stroke="white" stroke-width="1.9096" stroke-miterlimit="10" stroke-linecap="round"/>
<path d="M388.679 51.4033C389.998 52.6945 391.761 53.4327 393.607 53.4669" stroke="white" stroke-width="1.9096" stroke-miterlimit="10" stroke-linecap="round"/>
<path d="M370.323 58.5171C371.037 58.5171 371.616 57.938 371.616 57.2235C371.616 56.5091 371.037 55.9299 370.323 55.9299C369.608 55.9299 369.029 56.5091 369.029 57.2235C369.029 57.938 369.608 58.5171 370.323 58.5171Z" fill="white"/>
<path d="M354.307 58.087C355.021 58.087 355.6 57.5078 355.6 56.7934C355.6 56.0789 355.021 55.4998 354.307 55.4998C353.592 55.4998 353.013 56.0789 353.013 56.7934C353.013 57.5078 353.592 58.087 354.307 58.087Z" fill="white"/>
<path d="M352.151 50.7245C354.184 49.8005 358.773 50.0777 359.604 52.0797C360.929 55.1597 355.878 65.2005 355.015 69.0505C354.461 71.6685 358.804 71.3605 361.452 71.0525" stroke="white" stroke-width="1.9096" stroke-miterlimit="10" stroke-linecap="round"/>
<path d="M371.462 74.4717C369.152 82.2025 359.142 82.2949 357.171 77.1513" stroke="white" stroke-width="1.9096" stroke-miterlimit="10" stroke-linecap="round"/>
<path d="M245.151 83.8049C245.151 77.2445 245.151 75.6737 244.936 70.0681C244.936 68.1277 243.919 60.2737 247.739 61.0437C252.02 61.9061 250.819 79.0925 250.572 81.7721" stroke="white" stroke-width="1.9096" stroke-linecap="round" stroke-linejoin="round"/>
<path d="M249.34 62.0903C249.336 61.6469 249.427 61.2077 249.608 60.8029C249.789 60.398 250.055 60.037 250.389 59.7446C250.722 59.4521 251.115 59.2351 251.54 59.1084C251.965 58.9817 252.412 58.9482 252.851 59.0103C257.903 59.0103 256.825 74.0099 256.64 81.4327" stroke="white" stroke-width="1.9096" stroke-linecap="round" stroke-linejoin="round"/>
<path d="M336.936 116.176C340.016 160.281 324.338 168.135 324.338 168.135C323.384 168.597 293.076 185.537 280.14 186.615C268.714 187.539 245.152 100.991 245.152 100.991" stroke="black" stroke-width="2.6488" stroke-linecap="round" stroke-linejoin="round"/>
<path d="M300.13 354.536C300.13 354.536 278.323 339.136 252.236 319.455" stroke="black" stroke-width="2.6488" stroke-miterlimit="10"/>
<path d="M431.399 402.647C431.399 402.647 404.941 402.647 372.509 401.938" stroke="black" stroke-width="2.6488" stroke-miterlimit="10"/>
<path d="M89.1497 217.446C87.5963 217.446 86.0779 216.986 84.7863 216.123C83.4947 215.26 82.488 214.033 81.8936 212.598C81.2991 211.163 81.1436 209.584 81.4466 208.06C81.7497 206.537 82.4977 205.137 83.5961 204.039C84.6945 202.94 86.094 202.192 87.6175 201.889C89.141 201.586 90.7202 201.742 92.1553 202.336C93.5904 202.931 94.8171 203.937 95.6801 205.229C96.5431 206.52 97.0037 208.039 97.0037 209.592" stroke="black" stroke-width="2.6488" stroke-linejoin="round"/>
<path d="M391.667 232.661C401.708 230.228 442.826 210.177 437.036 200.413C432.015 192.867 404.141 161.667 413.751 117.253" stroke="black" stroke-width="2.6488" stroke-linecap="round" stroke-linejoin="round"/>
<path d="M259.073 98.9268C266.716 117.345 276.473 134.813 288.148 150.979C288.148 150.979 320.427 123.628 330.652 117.776C338.537 113.28 355.631 112.756 355.631 112.756C356.586 117.468 365.056 145.897 370.477 147.529C375.035 148.884 391.144 118.824 393.053 110.877C393.053 110.877 415.968 115.405 423.36 121.472C429.859 126.801 459.458 168.72 464.078 178.206C467.712 185.752 471.686 192.405 471.162 200.844C469.468 226.993 422.067 249.693 394.378 247.876" stroke="black" stroke-width="2.6488" stroke-linecap="round" stroke-linejoin="round"/>
<path d="M262.584 109.245L248.17 111.278" stroke="black" stroke-width="2.6488" stroke-linecap="round" stroke-linejoin="round"/>
<path d="M394.562 480.508H429.613" stroke="black" stroke-width="2.6488" stroke-linecap="round" stroke-linejoin="round"/>
<path d="M265.726 414.443H296.341" stroke="black" stroke-width="2.6488" stroke-linecap="round" stroke-linejoin="round"/>
<path d="M359.204 526.832C362.284 514.913 375.251 524.676 394.747 522.274C405.866 520.919 417.046 513.465 429.366 514.296" stroke="black" stroke-width="2.6488" stroke-miterlimit="10"/>
<path d="M230.367 465.447C233.201 453.558 245.767 463.322 264.463 460.92C275.12 459.534 285.838 452.111 297.665 452.912" stroke="black" stroke-width="2.6488" stroke-miterlimit="10"/>
<path d="M382.334 251.511V254.406C382.334 256.04 381.685 257.606 380.53 258.762C379.375 259.917 377.808 260.566 376.174 260.566H366.318C364.685 260.566 363.118 259.917 361.962 258.762C360.807 257.606 360.158 256.04 360.158 254.406V250.001" stroke="black" stroke-width="2.6488" stroke-miterlimit="10" stroke-linecap="round"/>
<path d="M360.189 229.026V205.31C360.189 203.676 360.838 202.109 361.993 200.954C363.149 199.799 364.715 199.15 366.349 199.15H376.205C377.839 199.15 379.406 199.799 380.561 200.954C381.716 202.109 382.365 203.676 382.365 205.31V229.95" stroke="black" stroke-width="2.6488" stroke-miterlimit="10" stroke-linecap="round"/>
<path d="M380.179 198.996C380.408 198.995 380.634 198.944 380.842 198.847C381.049 198.749 381.233 198.607 381.379 198.431C381.526 198.255 381.632 198.049 381.691 197.827C381.75 197.606 381.759 197.374 381.719 197.148C381.276 194.698 379.986 192.48 378.075 190.884C376.164 189.287 373.753 188.412 371.262 188.412C368.772 188.412 366.36 189.287 364.449 190.884C362.538 192.48 361.248 194.698 360.806 197.148C360.765 197.374 360.774 197.606 360.833 197.827C360.892 198.049 360.998 198.255 361.145 198.431C361.292 198.607 361.475 198.749 361.683 198.847C361.89 198.944 362.116 198.995 362.346 198.996H380.179Z" stroke="black" stroke-width="2.6488" stroke-miterlimit="10" stroke-linecap="round"/>
<path d="M245.275 88.9792C245.301 86.9229 245.219 84.8667 245.028 82.8192C244.846 81.3261 244.431 79.8711 243.796 78.5072C243.334 77.614 242.164 76.4128 240.716 77.0288C238.653 77.9836 238.838 80.7556 238.899 82.2956C238.899 85.8376 238.899 96.0631 243.365 102.008" stroke="white" stroke-width="1.9096" stroke-linecap="round" stroke-linejoin="round"/>
<path d="M260.644 98.5581C263.2 87.6549 263.323 65.0169 259.504 61.5981C258.18 60.4585 255.747 60.3353 255.962 62.0909" stroke="white" stroke-width="1.9096" stroke-linecap="square" stroke-linejoin="round"/>
<path d="M359.296 236.973C358.891 236.809 358.449 236.755 358.016 236.818C357.584 236.881 357.175 237.058 356.834 237.331C356.492 237.604 356.229 237.963 356.072 238.371C355.914 238.779 355.868 239.221 355.939 239.653C356.216 243.995 364.686 247.722 374.419 246.49" stroke="white" stroke-width="1.9096" stroke-miterlimit="10" stroke-linecap="round"/>
<path d="M359.728 244.426C356.648 242.917 355.755 245.073 356.063 246.305C357.141 250.34 367.489 257.393 392.838 249.385C392.838 249.385 395.918 250.032 396.565 250.062" stroke="white" stroke-width="1.9096" stroke-miterlimit="10" stroke-linecap="square"/>
<path d="M381.595 230.32C379.378 234.293 372.602 233.831 367.951 233.154C365.155 232.212 362.533 230.818 360.189 229.027C359.873 228.823 359.516 228.692 359.143 228.644C358.77 228.596 358.39 228.632 358.033 228.749C357.367 228.936 356.783 229.341 356.375 229.9C355.967 230.458 355.759 231.138 355.785 231.829C356.031 236.542 365.025 241.377 374.696 239.899" stroke="white" stroke-width="1.9096" stroke-miterlimit="10" stroke-linecap="round"/>
<path d="M344.081 42.9331C343.408 46.1851 343.077 49.4989 343.096 52.8199C343.096 63.7847 355.416 87.4083 359.789 89.1331C366.319 91.7203 375.59 85.5911 378.546 79.5235" stroke="white" stroke-width="1.9096" stroke-miterlimit="10" stroke-linecap="round"/>
<path d="M361.729 89.3799C359.881 96.2483 355.569 110.016 355.569 111.679" stroke="white" stroke-width="2.6488" stroke-miterlimit="10"/>
<path d="M386.462 42.4089C386.462 42.4089 374.419 40.9613 365.764 40.9613C357.664 40.9613 345.56 42.4089 345.56 42.4089C344.988 42.4173 344.421 42.3105 343.892 42.0948C343.363 41.8792 342.883 41.5591 342.481 41.1537C342.078 40.7483 341.762 40.266 341.55 39.7355C341.338 39.205 341.235 38.6372 341.248 38.0661V34.6781C341.248 33.5508 341.695 32.4697 342.493 31.6726C343.29 30.8755 344.371 30.4277 345.498 30.4277C345.498 30.4277 359.05 29.1033 365.764 29.1033C373.095 29.1033 386.4 30.4277 386.4 30.4277C387.528 30.4277 388.609 30.8755 389.406 31.6726C390.203 32.4697 390.651 33.5508 390.651 34.6781V38.0661C390.663 38.6268 390.564 39.1845 390.36 39.7068C390.156 40.2292 389.85 40.706 389.461 41.1097C389.071 41.5134 388.606 41.836 388.091 42.059C387.577 42.282 387.023 42.4009 386.462 42.4089Z" stroke="black" stroke-width="2.6488" stroke-linecap="round" stroke-linejoin="round"/>
<path d="M350.487 113.557C350.487 113.557 360.467 152.765 370.138 152.673C380.733 152.673 391.205 129.357 397.396 112.848" stroke="black" stroke-width="2.6488" stroke-miterlimit="10" stroke-linecap="round"/>
<path d="M408.576 115.067C405.457 128.55 405.444 142.566 408.539 156.056C411.634 169.545 417.755 182.154 426.44 192.929" stroke="black" stroke-width="2.6488" stroke-miterlimit="10" stroke-linecap="round"/>
<path d="M341.247 114.667C341.247 114.667 346.607 159.142 324.985 174.665" stroke="black" stroke-width="2.6488" stroke-miterlimit="10" stroke-linecap="round"/>
<path d="M406.482 283.973V402.43" stroke="black" stroke-width="2.6488" stroke-miterlimit="10" stroke-linecap="round"/>
<path d="M413.967 283.973V402.43" stroke="black" stroke-width="2.6488" stroke-miterlimit="10" stroke-linecap="round"/>
<path d="M42.4878 243.132C54.0158 247.119 66.2358 248.712 78.4006 247.814C82.2198 247.568 81.2958 231.675 81.2958 231.675C71.255 229.242 30.2294 210.115 36.0198 200.413C46.9259 185.696 59.3105 172.135 72.9798 159.942" stroke="white" stroke-width="2.6488" stroke-linejoin="round"/>
<path d="M108.861 83.466C102.701 83.2504 100.145 73.8564 101.685 75.1192C103.914 76.3045 106.389 76.9525 108.913 77.0113C111.438 77.0701 113.94 76.5382 116.222 75.458C117.916 74.534 113.851 83.6816 108.861 83.466Z" stroke="black" stroke-width="2.6488" stroke-miterlimit="10"/>
<path d="M209.392 108.352L183.058 121.042L193.9 94.3076L171.57 82.7576L201.816 68.8052L176.005 44.5964L210.224 50.3868L198.52 13.4268L227.287 39.422L237.42 2L247.554 39.422L269.483 24.5456L264.617 50.3868L302.87 44.042L273.025 68.8052L294.678 81.31L270.161 88.8868L291.782 121.042L264.555 107.86" stroke="black" stroke-width="2.6488" stroke-linecap="round" stroke-linejoin="round"/>
<path d="M253.375 127.756L251.096 133.608L236.712 115.467L218.263 142.109L218.386 133.608" stroke="black" stroke-width="2.6488" stroke-linecap="round" stroke-linejoin="round"/>
<path d="M372.171 183.073H370.046C369.042 183.073 368.228 183.88 368.228 184.875C368.228 185.87 369.042 186.677 370.046 186.677H372.171C373.174 186.677 373.988 185.87 373.988 184.875C373.988 183.88 373.174 183.073 372.171 183.073Z" fill="black"/>
<path d="M369.337 185.69V188.154C369.337 188.308 369.462 188.432 369.615 188.432H372.664C372.817 188.432 372.941 188.308 372.941 188.154V185.69C372.941 185.537 372.817 185.413 372.664 185.413H369.615C369.462 185.413 369.337 185.537 369.337 185.69Z" fill="black"/>
</svg>
